<svg version="1.2" xmlns="http://www.w3.org/2000/svg" viewBox="0 0 52 52" width="52" height="52">
	<title>tinylogo</title>
	<style>
		.s0 { fill: #ff8c42 } 
		.s1 { fill: #fefaf8 } 
	</style>
	<path id="Shape 2" fill-rule="evenodd" class="s0" d="m27 51c6.6 0 13-2.6 17.7-7.3 4.7-4.7 7.3-11.1 7.3-17.7 0-6.6-2.6-13-7.3-17.7-4.7-4.7-11.1-7.3-17.7-7.3-6.6 0-13 2.6-17.7 7.3-4.7 4.7-7.3 11.1-7.3 17.7 0 6.6 2.6 13 7.3 17.7 4.7 4.7 11.1 7.3 17.7 7.3z"/>
	<path id="Shape 3" fill-rule="evenodd" class="s1" d="m11 12.4c0-0.8 0.6-1.4 1.2-1.4h2.4c1.2 0 2.2 0.7 2.6 1.9h21.4c1.4 0 2.4 1.4 2 2.9l-2.1 9c-0.4 1.8-1.9 3.1-3.6 3.1h-15l0.3 1.6c0.1 0.7 0.6 1.2 1.2 1.2h15c0.7 0 1.2 0.6 1.2 1.4 0 0.8-0.5 1.4-1.2 1.4h-15c-1.8 0-3.4-1.4-3.7-3.4l-2.7-15.9c0-0.2-0.2-0.4-0.4-0.4h-2.4c-0.6 0-1.2-0.6-1.2-1.4zm6.7 25.8c0-0.8 0.2-1.5 0.7-2 0.5-0.5 1.1-0.8 1.8-0.8 0.6 0 1.3 0.3 1.7 0.8 0.5 0.5 0.8 1.2 0.8 2 0 0.7-0.3 1.4-0.8 2-0.4 0.5-1.1 0.8-1.7 0.8-0.7 0-1.3-0.3-1.8-0.8-0.5-0.6-0.7-1.3-0.7-2zm17.4-2.8c0.7 0 1.3 0.3 1.8 0.8 0.5 0.5 0.7 1.2 0.7 2 0 0.7-0.2 1.4-0.7 2-0.5 0.5-1.1 0.8-1.8 0.8-0.6 0-1.3-0.3-1.7-0.8-0.5-0.6-0.8-1.3-0.8-2 0-0.8 0.3-1.5 0.8-2 0.4-0.5 1.1-0.8 1.7-0.8zm-11-15c0 0.6 0.5 1.1 1.1 1.1h2.2v2.6c0 0.7 0.5 1.2 1.1 1.2 0.6 0 1-0.5 1-1.2v-2.6h2.3c0.6 0 1.1-0.5 1.1-1.1 0-0.7-0.5-1.2-1.1-1.2h-2.3v-2.6c0-0.6-0.4-1.1-1-1.1-0.6 0-1.1 0.5-1.1 1.1v2.6h-2.2c-0.6 0-1.1 0.5-1.1 1.2z"/>
</svg>