<svg version="1.2" xmlns="http://www.w3.org/2000/svg" viewBox="0 0 250 100" width="250" height="100">
	<title>logo2</title>
	<style>
		.s0 { fill: #171616 } 
		.s1 { fill: #ff8c42 } 
		.s2 { fill: #ffffff } 
	</style>
	<path id="MEGA" class="s0" aria-label="MEGA"  d="m150.6 6h-11.3l-7.5 16.3-3.2-16.3h-11.9l-8.5 33h6.2l4.6-20.8 4 20.8h6.7l9.1-20.8c-0.8 9.3-1 12.5-1 15.6 0 4.1 2.1 6.2 6.1 6.2 3.5 0 5.7-1.5 6.5-2.6-0.7-1.4-1-3.1-1-6.4 0-4.3 0.5-11.6 1.2-25zm18.6 6c2 0.6 3.9 1 5.5 1 3.7 0 6.1-1.7 6.1-5.2 0-0.6-0.1-1.1-0.2-1.8-3.7 0.1-7.3 0.2-10.9 0.2-4.3 0-8.4-0.1-12.7-0.2l-6.1 33h19.5c3 0 4.7-1.7 4.7-4.1 0-0.9-0.2-1.9-0.7-2.9-1.2 0.2-3.7 0.3-6.1 0.3-1 0-2 0-3 0l1.5-7.3c1.6 0.5 3.1 0.8 4.4 0.8 3.3 0 5.3-1.8 5.3-5 0-0.4-0.1-0.9-0.1-1.4-1 0.1-2.2 0.1-3.3 0.1-2 0-4-0.1-5.3-0.2zm44.4 9.6l-11.9 0.9-1.6 9.8c-0.4 0.8-1.8 1.2-2.8 1.2-4 0-4.6-5.5-4.6-8.6 0-7.2 3.5-16.4 7.6-16.4 1.9 0 2.7 1.8 2.7 4.6 0 1.3-0.1 2.8-0.4 4.4 0.8 0.1 1.6 0.1 2.2 0.1 4.2 0 8-2.9 8-6.8 0-5.1-6.4-5.8-11.1-5.8-13.8 0-22 7.6-22 20.7 0 8.6 3.6 14.3 11.6 14.3 2.8 0 6.4-0.7 8.9-3.1 0.1 1.1 2.3 3.1 5.8 3.1 1.5 0 2.5-0.3 3.8-1-0.1-6.6 1.3-11.9 3.8-17.4zm29.9 15.1c-2.7-4.1-2.7-11-3.7-30.7h-13.2l-16.2 33h7.6c0.6-2.1 1.5-4.7 2.8-7.8h8.3c0.8 5.7 2.5 8.8 7.7 8.8 3.2 0 5.6-1.3 6.7-3.3zm-15.2-22.2l0.7 12.5h-6.6c1.6-3.4 3.3-7.5 5.9-12.5z"/>
	<path id="MART" class="s0" aria-label="MART"  d="m146.6 61h-11.3l-7.5 16.3-3.2-16.3h-11.9l-8.5 33h6.2l4.6-20.8 4 20.8h6.7l9.1-20.8c-0.8 9.3-1 12.5-1 15.6 0 4 2.1 6.2 6.1 6.2 3.5 0 5.7-1.5 6.5-2.7-0.7-1.3-1-3-1-6.3 0-4.3 0.5-11.6 1.2-25zm30.9 30.8c-2.7-4.2-2.7-11.1-3.7-30.8h-13.2l-16.2 33h7.6c0.6-2 1.5-4.7 2.8-7.8h8.3c0.8 5.7 2.5 8.8 7.7 8.8 3.1 0 5.6-1.3 6.7-3.3zm-15.2-22.2l0.6 12.5h-6.5c1.5-3.3 3.4-7.5 5.9-12.5zm21.5-8.5l-6.1 33h13.1l5.7-30h1.3c2.9 0 3.8 1.8 3.8 4.9 0 4.1-1.9 7.6-6.4 7.6-0.3 0-0.5 0-0.8 0 1 9.5 2.3 18.5 10.6 18.5 3.6 0 5.8-1.5 6.9-4.5-3.2-1.5-5.5-5.8-6.8-11.4 4.7-1.1 7.9-4.4 7.9-9.7 0-8-7.2-8.6-16.2-8.6-3.8 0-7.2 0.1-13 0.2zm57.1-0.2c-1.5 0.2-3.6 0.2-6.7 0.2-3.4 0-8.1 0-14.4 0-3.4 0-5 1.3-5 4.7v2h6.5l-1.7 7.6c-1.6 7.6-2 11.7-2 13.7 0 3.7 2 6 6.3 6 2.3 0 4.9-0.7 6.9-2-0.4-0.5-0.7-2-0.7-3.5 0-1.3 0.2-3.3 0.5-5.1l3.2-16.7h3.1c3.4 0 4.8-1.7 4.8-3.9 0-1-0.3-2-0.8-3z"/>
	<path id="Shop all you want" class="s1" aria-label="Shop all you want"  d="m129 53.1q-1.2 0-2-0.3-0.8-0.4-1.2-0.9-0.4-0.6-0.5-1.2 0-0.1 0.1-0.2 0.1 0 0.2 0h1.5q0.2 0 0.3 0 0.1 0.1 0.1 0.2 0.1 0.2 0.3 0.3 0.2 0.2 0.5 0.3 0.3 0.1 0.7 0.1 0.7 0 1-0.2 0.4-0.2 0.4-0.6 0-0.3-0.2-0.5-0.2-0.1-0.6-0.3-0.5-0.1-1.2-0.2-0.9-0.2-1.5-0.5-0.7-0.3-1-0.8-0.3-0.5-0.3-1.3 0-0.7 0.4-1.3 0.4-0.6 1.1-0.9 0.8-0.3 1.8-0.3 0.8 0 1.5 0.2 0.6 0.2 1 0.6 0.5 0.3 0.7 0.7 0.2 0.4 0.2 0.8 0 0.1-0.1 0.2 0 0.1-0.1 0.1h-1.6q-0.2 0-0.3-0.1-0.1 0-0.1-0.1-0.1-0.3-0.4-0.5-0.3-0.2-0.8-0.2-0.5 0-0.8 0.2-0.3 0.2-0.3 0.6 0 0.2 0.1 0.4 0.2 0.2 0.6 0.3 0.4 0.1 1 0.3 1.1 0.2 1.8 0.5 0.7 0.3 1 0.8 0.3 0.5 0.3 1.2 0 0.8-0.5 1.4-0.4 0.6-1.3 0.9-0.8 0.3-1.8 0.3zm6.5-0.1h-1.5q-0.2 0-0.3-0.1 0-0.1 0-0.2v-7.9q0-0.2 0-0.2 0.1-0.1 0.3-0.1h1.5q0.1 0 0.2 0.1 0.1 0 0.1 0.2v2.7q0.3-0.4 0.8-0.6 0.5-0.3 1.1-0.3 0.7 0 1.2 0.4 0.6 0.3 0.9 0.9 0.3 0.6 0.3 1.5v3.3q0 0.1-0.1 0.2-0.1 0.1-0.2 0.1h-1.5q-0.2 0-0.3-0.1 0-0.1 0-0.2v-3.3q0-0.5-0.3-0.8-0.3-0.4-0.8-0.4-0.5 0-0.8 0.4-0.3 0.3-0.3 0.8v3.3q0 0.1-0.1 0.2-0.1 0.1-0.2 0.1zm8.9 0.1q-1 0-1.7-0.3-0.7-0.3-1-0.9-0.4-0.6-0.5-1.5 0-0.2 0-0.5 0-0.3 0-0.6 0.1-0.8 0.5-1.4 0.4-0.6 1-0.9 0.7-0.4 1.7-0.4 1 0 1.7 0.4 0.7 0.3 1.1 0.9 0.3 0.6 0.4 1.4 0 0.3 0 0.6 0 0.3 0 0.5-0.1 0.9-0.4 1.5-0.4 0.6-1.1 0.9-0.7 0.3-1.7 0.3zm0-1.4q0.6 0 0.8-0.4 0.2-0.3 0.3-0.9 0-0.2 0-0.5 0-0.3 0-0.5-0.1-0.6-0.3-1-0.2-0.3-0.8-0.3-0.5 0-0.8 0.3-0.2 0.4-0.2 1-0.1 0.2-0.1 0.5 0 0.3 0.1 0.5 0 0.6 0.2 0.9 0.3 0.4 0.8 0.4zm6.2 3.6h-1.5q-0.1 0-0.2-0.1-0.1-0.1-0.1-0.2v-7.9q0-0.2 0.1-0.3 0.1 0 0.2 0h1.4q0.1 0 0.2 0 0.1 0.1 0.1 0.3v0.4q0.2-0.4 0.7-0.6 0.5-0.3 1.1-0.3 0.6 0 1.1 0.2 0.4 0.2 0.7 0.6 0.4 0.3 0.6 0.8 0.1 0.6 0.2 1.2 0 0.3 0 0.5 0 0.2 0 0.4-0.1 0.7-0.2 1.2-0.2 0.5-0.5 0.9-0.4 0.3-0.8 0.5-0.5 0.2-1.1 0.2-0.6 0-1-0.2-0.5-0.2-0.7-0.6v2.7q0 0.1-0.1 0.2-0.1 0.1-0.2 0.1zm1.4-3.8q0.4 0 0.6-0.2 0.2-0.1 0.3-0.4 0.1-0.3 0.2-0.6 0-0.4 0-0.8-0.1-0.3-0.2-0.6-0.1-0.3-0.3-0.5-0.2-0.2-0.6-0.2-0.4 0-0.7 0.2-0.2 0.2-0.3 0.5-0.1 0.2-0.1 0.6-0.1 0.2-0.1 0.4 0 0.2 0.1 0.5 0 0.3 0.1 0.5 0.1 0.3 0.4 0.5 0.2 0.1 0.6 0.1zm8.8 1.6q-0.7 0-1.2-0.2-0.5-0.3-0.8-0.7-0.3-0.4-0.3-0.9 0-0.9 0.7-1.4 0.7-0.5 1.9-0.7l1.5-0.2v-0.2q0-0.4-0.2-0.6-0.2-0.3-0.7-0.3-0.3 0-0.5 0.2-0.2 0.1-0.3 0.3-0.2 0.2-0.3 0.2h-1.4q-0.1 0-0.2-0.1-0.1-0.1-0.1-0.2 0-0.2 0.2-0.5 0.2-0.2 0.5-0.5 0.3-0.3 0.9-0.5 0.5-0.2 1.3-0.2 0.7 0 1.3 0.2 0.5 0.2 0.9 0.5 0.3 0.3 0.5 0.8 0.1 0.4 0.1 1v3.6q0 0.1 0 0.2-0.1 0.1-0.3 0.1h-1.3q-0.2 0-0.3-0.1 0-0.1 0-0.2v-0.4q-0.2 0.2-0.5 0.4-0.2 0.2-0.6 0.3-0.3 0.1-0.8 0.1zm0.6-1.3q0.3 0 0.6-0.2 0.3-0.1 0.4-0.5 0.2-0.3 0.2-0.8v-0.1l-1 0.1q-0.6 0.1-0.9 0.3-0.2 0.2-0.2 0.5 0 0.2 0.1 0.4 0.1 0.1 0.3 0.2 0.2 0.1 0.5 0.1zm6.3 1.2h-1.4q-0.1 0-0.2-0.1-0.1-0.1-0.1-0.2v-7.9q0-0.2 0.1-0.2 0.1-0.1 0.2-0.1h1.4q0.2 0 0.2 0.1 0.1 0 0.1 0.2v7.9q0 0.1-0.1 0.2 0 0.1-0.2 0.1zm3.5 0h-1.5q-0.1 0-0.2-0.1-0.1-0.1-0.1-0.2v-7.9q0-0.2 0.1-0.2 0.1-0.1 0.2-0.1h1.5q0.1 0 0.2 0.1 0.1 0 0.1 0.2v7.9q0 0.1-0.1 0.2-0.1 0.1-0.2 0.1zm6.4 2.3h-1.3q-0.1 0-0.2-0.1-0.1-0.1-0.1-0.2 0 0 0 0 0-0.1 0.1-0.1l0.9-2.3-2.3-5.4q0-0.1 0-0.2 0-0.1 0.1-0.2 0 0 0.1 0h1.4q0.2 0 0.2 0 0.1 0.1 0.1 0.2l1.4 3.5 1.4-3.5q0.1-0.1 0.1-0.2 0.1 0 0.3 0h1.3q0.1 0 0.2 0 0.1 0.1 0.1 0.2 0 0.1 0 0.2l-3.4 7.8q-0.1 0.1-0.2 0.2 0 0.1-0.2 0.1zm7.4-2.2q-1 0-1.7-0.3-0.7-0.3-1.1-0.9-0.3-0.6-0.4-1.5 0-0.2 0-0.5 0-0.3 0-0.6 0.1-0.8 0.5-1.4 0.3-0.6 1-0.9 0.7-0.4 1.7-0.4 1 0 1.7 0.4 0.7 0.3 1 0.9 0.4 0.6 0.5 1.4 0 0.3 0 0.6 0 0.3 0 0.5-0.1 0.9-0.5 1.5-0.3 0.6-1 0.9-0.7 0.3-1.7 0.3zm0-1.4q0.5 0 0.8-0.4 0.2-0.3 0.3-0.9 0-0.2 0-0.5 0-0.3 0-0.5-0.1-0.6-0.3-1-0.3-0.3-0.8-0.3-0.5 0-0.8 0.3-0.2 0.4-0.3 1 0 0.2 0 0.5 0 0.3 0 0.5 0.1 0.6 0.3 0.9 0.3 0.4 0.8 0.4zm6.7 1.4q-0.7 0-1.3-0.3-0.5-0.3-0.8-0.9-0.3-0.6-0.3-1.5v-3.3q0-0.2 0.1-0.3 0.1 0 0.2 0h1.5q0.1 0 0.2 0 0.1 0.1 0.1 0.3v3.2q0 1.2 1.1 1.2 0.5 0 0.7-0.3 0.3-0.3 0.3-0.9v-3.2q0-0.2 0.1-0.3 0.1 0 0.2 0h1.5q0.2 0 0.3 0 0 0.1 0 0.3v5.6q0 0.1 0 0.2-0.1 0.1-0.3 0.1h-1.3q-0.2 0-0.3-0.1 0-0.1 0-0.2v-0.5q-0.4 0.5-0.9 0.7-0.5 0.2-1.1 0.2zm10.5-0.1h-1.1q-0.2 0-0.3-0.1-0.1-0.1-0.1-0.2l-1.7-5.6q-0.1 0-0.1-0.1 0-0.1 0.1-0.2 0.1 0 0.2 0h1.3q0.1 0 0.2 0 0.1 0.1 0.1 0.2l1 3.4 1.1-3.4q0-0.1 0.1-0.1 0.1-0.1 0.3-0.1h0.8q0.1 0 0.2 0.1 0.1 0 0.1 0.1l1.1 3.4 1-3.4q0.1-0.1 0.1-0.2 0.1 0 0.3 0h1.2q0.1 0 0.2 0 0.1 0.1 0.1 0.2 0 0.1 0 0.1l-1.8 5.6q0 0.1-0.1 0.2-0.1 0.1-0.2 0.1h-1.1q-0.2 0-0.3-0.1-0.1-0.1-0.1-0.2l-1.1-3.3-1.1 3.3q-0.1 0.1-0.2 0.2-0.1 0.1-0.2 0.1zm8.9 0.1q-0.7 0-1.2-0.2-0.5-0.3-0.8-0.7-0.3-0.4-0.3-0.9 0-0.9 0.7-1.4 0.7-0.5 1.8-0.7l1.5-0.2v-0.2q0-0.4-0.1-0.6-0.2-0.3-0.7-0.3-0.3 0-0.6 0.2-0.2 0.1-0.3 0.3-0.1 0.2-0.3 0.2h-1.3q-0.2 0-0.2-0.1-0.1-0.1-0.1-0.2 0-0.2 0.2-0.5 0.1-0.2 0.5-0.5 0.3-0.3 0.8-0.5 0.6-0.2 1.3-0.2 0.8 0 1.3 0.2 0.6 0.2 0.9 0.5 0.4 0.3 0.5 0.8 0.2 0.4 0.2 1v3.6q0 0.1-0.1 0.2-0.1 0.1-0.2 0.1h-1.4q-0.1 0-0.2-0.1-0.1-0.1-0.1-0.2v-0.4q-0.1 0.2-0.4 0.4-0.3 0.2-0.6 0.3-0.4 0.1-0.8 0.1zm0.5-1.3q0.4 0 0.7-0.2 0.2-0.1 0.4-0.5 0.2-0.3 0.2-0.8v-0.1l-1.1 0.1q-0.5 0.1-0.8 0.3-0.2 0.2-0.2 0.5 0 0.2 0.1 0.4 0.1 0.1 0.3 0.2 0.2 0.1 0.4 0.1zm6.5 1.2h-1.5q-0.2 0-0.2-0.1-0.1-0.1-0.1-0.2v-5.6q0-0.2 0.1-0.3 0 0 0.2 0h1.4q0.1 0 0.2 0 0.1 0.1 0.1 0.3v0.4q0.3-0.4 0.8-0.6 0.5-0.3 1.2-0.3 0.7 0 1.2 0.4 0.5 0.3 0.8 0.9 0.3 0.6 0.3 1.5v3.3q0 0.1-0.1 0.2 0 0.1-0.2 0.1h-1.5q-0.1 0-0.2-0.1-0.1-0.1-0.1-0.2v-3.3q0-0.5-0.3-0.8-0.2-0.4-0.7-0.4-0.5 0-0.8 0.4-0.3 0.3-0.3 0.8v3.3q0 0.1-0.1 0.2-0.1 0.1-0.2 0.1zm10.1 0h-1.1q-0.7 0-1.3-0.2-0.6-0.3-0.9-0.8-0.3-0.5-0.3-1.4v-2.3h-0.9q-0.1 0-0.2-0.1-0.1 0-0.1-0.2v-0.9q0-0.2 0.1-0.3 0.1 0 0.2 0h0.9v-2q0-0.2 0.1-0.2 0.1-0.1 0.2-0.1h1.4q0.2 0 0.2 0.1 0.1 0 0.1 0.2v2h1.5q0.2 0 0.2 0 0.1 0.1 0.1 0.3v0.9q0 0.2-0.1 0.2 0 0.1-0.2 0.1h-1.5v2.2q0 0.4 0.2 0.6 0.1 0.3 0.5 0.3h0.9q0.2 0 0.3 0 0 0.1 0 0.3v1q0 0.1 0 0.2-0.1 0.1-0.3 0.1z"/>
	<path id="Shape 1" fill-rule="evenodd" class="s1" d="m55 100c13.3 0 26-5.3 35.4-14.6 9.3-9.4 14.6-22.1 14.6-35.4 0-13.3-5.3-26-14.6-35.4-9.4-9.3-22.1-14.6-35.4-14.6-13.3 0-26 5.3-35.4 14.6-9.3 9.4-14.6 22.1-14.6 35.4 0 13.3 5.3 26 14.6 35.4 9.4 9.3 22.1 14.6 35.4 14.6z"/>
	<path id="Shape 2" fill-rule="evenodd" class="s2" d="m22 22.8c0-1.5 1.1-2.8 2.5-2.8h4.7c2.3 0 4.4 1.5 5.3 3.7h42.8c2.7 0 4.7 3 4 6l-4.3 17.8c-0.9 3.7-3.8 6.2-7.2 6.2h-30l0.5 3.4c0.3 1.3 1.3 2.3 2.5 2.3h30c1.4 0 2.5 1.2 2.5 2.8 0 1.5-1.1 2.8-2.5 2.8h-30c-3.6 0-6.7-2.9-7.4-6.9l-5.3-31.7c-0.1-0.5-0.5-0.8-0.9-0.8h-4.7c-1.4 0-2.5-1.2-2.5-2.8zm13.3 51.6c0-1.5 0.5-2.9 1.5-4 0.9-1.1 2.2-1.7 3.5-1.7 1.3 0 2.6 0.6 3.5 1.7 1 1.1 1.5 2.5 1.5 4 0 1.5-0.5 2.9-1.5 4-0.9 1-2.2 1.6-3.5 1.6-1.3 0-2.6-0.6-3.5-1.6-1-1.1-1.5-2.5-1.5-4zm35-5.7c1.3 0 2.6 0.6 3.5 1.7 1 1.1 1.5 2.5 1.5 4 0 1.5-0.5 2.9-1.5 4-0.9 1-2.2 1.6-3.5 1.6-1.3 0-2.6-0.6-3.5-1.6-1-1.1-1.5-2.5-1.5-4 0-1.5 0.5-2.9 1.5-4 0.9-1.1 2.2-1.7 3.5-1.7zm-22.1-30c0 1.3 1 2.4 2.1 2.4h4.6v5.1c0 1.3 0.9 2.4 2.1 2.4 1.1 0 2-1.1 2-2.4v-5.1h4.6c1.2 0 2.1-1.1 2.1-2.4 0-1.2-0.9-2.3-2.1-2.3h-4.6v-5.2c0-1.2-0.9-2.3-2-2.3-1.2 0-2.1 1.1-2.1 2.3v5.2h-4.6c-1.1 0-2.1 1.1-2.1 2.3z"/>
</svg>