<svg version="1.2" xmlns="http://www.w3.org/2000/svg" viewBox="0 0 250 100" width="250" height="100">
	<title>New Project</title>
	<style>
		.s0 { fill: #ff8c42 } 
		.s1 { fill: #171616 } 
		.s2 { fill: #ffffff } 
		.s3 { fill: #777777 } 
	</style>
	<path id="Background" fill-rule="evenodd" class="s0" d="m42 75c6.6 0 13-2.6 17.7-7.3 4.7-4.7 7.3-11.1 7.3-17.7 0-6.6-2.6-13-7.3-17.7-4.7-4.7-11.1-7.3-17.7-7.3-6.6 0-13 2.6-17.7 7.3-4.7 4.7-7.3 11.1-7.3 17.7 0 6.6 2.6 13 7.3 17.7 4.7 4.7 11.1 7.3 17.7 7.3z"/>
	<path id="MegaMart" class="s1" aria-label="MegaMart"  d="m75.3 55h-4.1q-0.3 0-0.6-0.2-0.2-0.3-0.2-0.7v-22.1q0-0.3 0.2-0.6 0.3-0.2 0.6-0.2h3.7q0.6 0 0.9 0.3 0.2 0.3 0.3 0.4l6 10.8 6-10.8q0.1-0.1 0.3-0.4 0.3-0.3 0.9-0.3h3.6q0.4 0 0.6 0.2 0.3 0.3 0.3 0.6v22.1q0 0.4-0.3 0.7-0.2 0.2-0.6 0.2h-4.1q-0.3 0-0.6-0.2-0.2-0.3-0.2-0.7v-12.7l-3.8 7.1q-0.2 0.3-0.5 0.5-0.3 0.3-0.7 0.3h-1.8q-0.5 0-0.8-0.3-0.2-0.2-0.4-0.5l-3.8-7.1v12.7q0 0.4-0.3 0.7-0.2 0.2-0.6 0.2zm31 0.3q-4 0-6.4-2.1-2.4-2.2-2.5-6.5 0-0.2 0-0.6 0-0.4 0-0.6 0.1-2.7 1.2-4.6 1.2-1.9 3.1-2.9 2-1 4.6-1 3 0 4.9 1.2 2 1.2 3 3.2 1 2 1 4.7v0.8q0 0.3-0.3 0.6-0.2 0.2-0.6 0.2h-10.9q0 0.1 0 0.1 0 0.1 0 0.2 0.1 0.9 0.4 1.8 0.3 0.8 0.9 1.3 0.7 0.4 1.6 0.4 0.7 0 1.1-0.2 0.5-0.2 0.8-0.5 0.3-0.3 0.5-0.5 0.3-0.4 0.4-0.4 0.2-0.1 0.7-0.1h4.2q0.3 0 0.5 0.2 0.3 0.2 0.2 0.5 0 0.6-0.6 1.4-0.5 0.8-1.6 1.6-1 0.8-2.5 1.3-1.6 0.5-3.7 0.5zm-2.9-11v0.1h5.8v-0.1q0-1.1-0.4-1.9-0.3-0.8-1-1.3-0.6-0.4-1.5-0.4-0.9 0-1.5 0.4-0.7 0.5-1 1.3-0.4 0.8-0.4 1.9zm23.6 18.2q-2.6 0-4.3-0.7-1.7-0.7-2.7-1.6-1-1-1.5-1.9-0.4-1-0.5-1.5 0-0.4 0.3-0.6 0.3-0.3 0.6-0.3h4.4q0.3 0 0.5 0.2 0.2 0.2 0.3 0.5 0.2 0.4 0.5 0.8 0.3 0.4 0.8 0.7 0.5 0.2 1.5 0.2 1 0 1.7-0.3 0.6-0.3 1-1 0.3-0.8 0.3-2v-2.3q-0.8 0.9-2 1.4-1.2 0.5-2.9 0.5-1.8 0-3.1-0.5-1.3-0.5-2.2-1.5-0.9-1-1.4-2.5-0.5-1.5-0.6-3.4 0-0.8 0-1.8 0.1-1.8 0.6-3.2 0.5-1.5 1.3-2.5 1-1.1 2.3-1.6 1.3-0.6 3.1-0.6 1.8 0 3.1 0.7 1.3 0.7 2.2 1.7v-1.2q0-0.4 0.2-0.6 0.2-0.3 0.6-0.3h3.9q0.4 0 0.6 0.3 0.3 0.2 0.3 0.6v16.3q0 2.6-1.1 4.4-1 1.7-3 2.7-2 0.9-4.8 0.9zm-0.2-12.3q1.1 0 1.8-0.5 0.6-0.4 0.9-1.2 0.4-0.7 0.4-1.6 0-0.4 0-1 0-0.7 0-1.1 0-0.8-0.4-1.6-0.3-0.7-0.9-1.2-0.7-0.5-1.8-0.5-1.1 0-1.8 0.5-0.7 0.5-1 1.3-0.2 0.8-0.3 1.8 0 0.8 0 1.5 0.1 1 0.3 1.8 0.3 0.9 1 1.3 0.7 0.5 1.8 0.5zm18.4 5.1q-1.8 0-3.3-0.6-1.4-0.8-2.3-1.9-0.8-1.2-0.8-2.7 0-2.4 2-3.8 1.9-1.5 5.2-2l4.2-0.6v-0.5q0-1.2-0.5-1.9-0.5-0.6-1.8-0.6-1 0-1.6 0.4-0.6 0.3-0.9 1-0.3 0.4-0.9 0.4h-3.8q-0.3 0-0.6-0.2-0.2-0.2-0.1-0.5 0-0.6 0.4-1.4 0.5-0.8 1.4-1.6 1-0.8 2.5-1.3 1.5-0.5 3.6-0.5 2.2 0 3.8 0.5 1.5 0.5 2.5 1.4 1 0.9 1.5 2.2 0.4 1.2 0.4 2.7v10.3q0 0.4-0.2 0.7-0.3 0.2-0.6 0.2h-4q-0.3 0-0.6-0.2-0.2-0.3-0.2-0.7v-1.1q-0.5 0.6-1.2 1.1-0.8 0.6-1.8 0.9-1 0.3-2.3 0.3zm1.6-3.8q1 0 1.8-0.4 0.8-0.5 1.2-1.4 0.5-0.9 0.5-2.2v-0.5l-2.9 0.5q-1.6 0.3-2.3 0.8-0.7 0.6-0.7 1.3 0 0.6 0.3 1 0.3 0.4 0.9 0.7 0.6 0.2 1.2 0.2zm18.5 3.5h-4.1q-0.3 0-0.6-0.2-0.3-0.3-0.3-0.7v-22.1q0-0.3 0.3-0.6 0.3-0.2 0.6-0.2h3.7q0.5 0 0.8 0.3 0.3 0.3 0.4 0.4l5.9 10.8 6-10.8q0.1-0.1 0.4-0.4 0.2-0.3 0.8-0.3h3.7q0.3 0 0.6 0.2 0.2 0.3 0.2 0.6v22.1q0 0.4-0.2 0.7-0.3 0.2-0.6 0.2h-4.1q-0.4 0-0.6-0.2-0.3-0.3-0.3-0.7v-12.7l-3.8 7.1q-0.2 0.3-0.4 0.5-0.3 0.3-0.8 0.3h-1.7q-0.5 0-0.8-0.3-0.3-0.2-0.4-0.5l-3.9-7.1v12.7q0 0.4-0.2 0.7-0.3 0.2-0.6 0.2zm28.1 0.3q-1.8 0-3.3-0.6-1.4-0.8-2.3-1.9-0.8-1.2-0.8-2.7 0-2.4 2-3.8 1.9-1.5 5.2-2l4.3-0.6v-0.5q0-1.2-0.6-1.9-0.5-0.6-1.8-0.6-1 0-1.6 0.4-0.6 0.3-0.9 1-0.3 0.4-0.9 0.4h-3.8q-0.3 0-0.5-0.2-0.2-0.2-0.2-0.5 0-0.6 0.4-1.4 0.5-0.8 1.5-1.6 0.9-0.8 2.4-1.3 1.5-0.5 3.6-0.5 2.2 0 3.8 0.5 1.5 0.5 2.5 1.4 1 0.9 1.5 2.2 0.4 1.2 0.4 2.7v10.3q0 0.4-0.2 0.7-0.3 0.2-0.6 0.2h-4q-0.3 0-0.6-0.2-0.2-0.3-0.2-0.7v-1.1q-0.4 0.6-1.2 1.1-0.7 0.6-1.8 0.9-0.9 0.3-2.3 0.3zm1.6-3.8q1 0 1.8-0.4 0.8-0.5 1.3-1.4 0.4-0.9 0.4-2.2v-0.5l-2.9 0.5q-1.6 0.3-2.3 0.8-0.7 0.6-0.7 1.3 0 0.6 0.3 1 0.4 0.4 0.9 0.7 0.6 0.2 1.2 0.2zm18.2 3.5h-4.2q-0.3 0-0.6-0.2-0.2-0.3-0.2-0.7v-15.9q0-0.4 0.2-0.6 0.3-0.3 0.6-0.3h3.9q0.4 0 0.7 0.3 0.2 0.2 0.2 0.6v1.3q0.9-1 2.2-1.6 1.3-0.6 2.9-0.6h1.5q0.3 0 0.6 0.3 0.2 0.2 0.2 0.6v3.5q0 0.3-0.2 0.6-0.3 0.2-0.6 0.2h-3.3q-1.4 0-2.2 0.8-0.8 0.8-0.8 2.1v8.7q0 0.4-0.2 0.7-0.3 0.2-0.7 0.2zm22.6 0h-3.1q-2.2 0-3.8-0.7-1.6-0.7-2.4-2.2-0.9-1.5-0.9-3.8v-6.5h-2.6q-0.4 0-0.7-0.3-0.2-0.2-0.2-0.6v-2.7q0-0.4 0.2-0.6 0.3-0.3 0.7-0.3h2.6v-5.6q0-0.4 0.3-0.6 0.2-0.2 0.6-0.2h3.9q0.4 0 0.6 0.2 0.3 0.2 0.3 0.6v5.6h4.2q0.4 0 0.6 0.3 0.3 0.2 0.3 0.6v2.7q0 0.4-0.3 0.6-0.2 0.3-0.6 0.3h-4.2v6q0 1.2 0.4 1.9 0.5 0.6 1.5 0.6h2.6q0.4 0 0.6 0.3 0.3 0.2 0.3 0.6v2.9q0 0.4-0.3 0.7-0.2 0.2-0.6 0.2z"/>
	<path id="Shape 1" fill-rule="evenodd" class="s2" d="m25 36.4c0-0.8 0.6-1.4 1.2-1.4h2.4c1.2 0 2.2 0.7 2.6 1.9h21.4c1.4 0 2.4 1.4 2 2.9l-2.1 9c-0.4 1.8-1.9 3.1-3.6 3.1h-15l0.3 1.6c0.1 0.7 0.6 1.2 1.2 1.2h15c0.7 0 1.2 0.6 1.2 1.4 0 0.8-0.5 1.4-1.2 1.4h-15c-1.8 0-3.4-1.4-3.7-3.4l-2.7-15.9c0-0.2-0.2-0.4-0.4-0.4h-2.4c-0.6 0-1.2-0.6-1.2-1.4zm6.7 25.8c0-0.8 0.2-1.5 0.7-2 0.5-0.5 1.1-0.8 1.8-0.8 0.6 0 1.3 0.3 1.7 0.8 0.5 0.5 0.8 1.2 0.8 2 0 0.7-0.3 1.4-0.8 2-0.4 0.5-1.1 0.8-1.7 0.8-0.7 0-1.3-0.3-1.8-0.8-0.5-0.6-0.7-1.3-0.7-2zm17.4-2.8c0.7 0 1.3 0.3 1.8 0.8 0.5 0.5 0.7 1.2 0.7 2 0 0.7-0.2 1.4-0.7 2-0.5 0.5-1.1 0.8-1.8 0.8-0.6 0-1.3-0.3-1.7-0.8-0.5-0.6-0.8-1.3-0.8-2 0-0.8 0.3-1.5 0.8-2 0.4-0.5 1.1-0.8 1.7-0.8zm-11-15c0 0.6 0.5 1.1 1.1 1.1h2.2v2.6c0 0.7 0.5 1.2 1.1 1.2 0.6 0 1-0.5 1-1.2v-2.6h2.3c0.6 0 1.1-0.5 1.1-1.1 0-0.7-0.5-1.2-1.1-1.2h-2.3v-2.6c0-0.6-0.4-1.1-1-1.1-0.6 0-1.1 0.5-1.1 1.1v2.6h-2.2c-0.6 0-1.1 0.5-1.1 1.2z"/>
	<path id="Shop all you want" class="s3" aria-label="Shop all you want"  d="m95 73.1q-1.2 0-2-0.3-0.8-0.4-1.2-0.9-0.4-0.6-0.5-1.2 0-0.1 0.1-0.2 0.1 0 0.2 0h1.5q0.2 0 0.3 0 0.1 0.1 0.1 0.2 0.1 0.2 0.3 0.3 0.2 0.2 0.5 0.3 0.3 0.1 0.7 0.1 0.7 0 1-0.2 0.4-0.2 0.4-0.6 0-0.3-0.2-0.5-0.2-0.1-0.6-0.3-0.5-0.1-1.2-0.2-0.9-0.2-1.5-0.5-0.7-0.3-1-0.8-0.3-0.5-0.3-1.3 0-0.7 0.4-1.3 0.4-0.6 1.1-0.9 0.8-0.3 1.8-0.3 0.8 0 1.5 0.2 0.6 0.2 1 0.6 0.5 0.3 0.7 0.7 0.2 0.4 0.2 0.8 0 0.1-0.1 0.2 0 0.1-0.1 0.1h-1.6q-0.2 0-0.3-0.1-0.1 0-0.1-0.1-0.1-0.3-0.4-0.5-0.3-0.2-0.8-0.2-0.5 0-0.8 0.2-0.3 0.2-0.3 0.6 0 0.2 0.1 0.4 0.2 0.2 0.6 0.3 0.4 0.1 1 0.3 1.1 0.2 1.8 0.5 0.7 0.3 1 0.8 0.3 0.5 0.3 1.2 0 0.8-0.5 1.4-0.4 0.6-1.3 0.9-0.8 0.3-1.8 0.3zm6.5-0.1h-1.5q-0.2 0-0.3-0.1 0-0.1 0-0.2v-7.9q0-0.2 0-0.2 0.1-0.1 0.3-0.1h1.5q0.1 0 0.2 0.1 0.1 0 0.1 0.2v2.7q0.3-0.4 0.8-0.6 0.5-0.3 1.1-0.3 0.7 0 1.2 0.4 0.6 0.3 0.9 0.9 0.3 0.6 0.3 1.5v3.3q0 0.1-0.1 0.2-0.1 0.1-0.2 0.1h-1.5q-0.2 0-0.3-0.1 0-0.1 0-0.2v-3.3q0-0.5-0.3-0.8-0.3-0.4-0.8-0.4-0.5 0-0.8 0.4-0.3 0.3-0.3 0.8v3.3q0 0.1-0.1 0.2-0.1 0.1-0.2 0.1zm8.9 0.1q-1 0-1.7-0.3-0.7-0.3-1-0.9-0.4-0.6-0.5-1.5 0-0.2 0-0.5 0-0.3 0-0.6 0.1-0.8 0.5-1.4 0.4-0.6 1-0.9 0.7-0.4 1.7-0.4 1 0 1.7 0.4 0.7 0.3 1.1 0.9 0.3 0.6 0.4 1.4 0 0.3 0 0.6 0 0.3 0 0.5-0.1 0.9-0.4 1.5-0.4 0.6-1.1 0.9-0.7 0.3-1.7 0.3zm0-1.4q0.6 0 0.8-0.4 0.2-0.3 0.3-0.9 0-0.2 0-0.5 0-0.3 0-0.5-0.1-0.6-0.3-1-0.2-0.3-0.8-0.3-0.5 0-0.8 0.3-0.2 0.4-0.2 1-0.1 0.2-0.1 0.5 0 0.3 0.1 0.5 0 0.6 0.2 0.9 0.3 0.4 0.8 0.4zm6.2 3.6h-1.5q-0.1 0-0.2-0.1-0.1-0.1-0.1-0.2v-7.9q0-0.2 0.1-0.3 0.1 0 0.2 0h1.4q0.1 0 0.2 0 0.1 0.1 0.1 0.3v0.4q0.2-0.4 0.7-0.6 0.5-0.3 1.1-0.3 0.6 0 1.1 0.2 0.4 0.2 0.7 0.6 0.4 0.3 0.6 0.8 0.1 0.6 0.2 1.2 0 0.3 0 0.5 0 0.2 0 0.4-0.1 0.7-0.2 1.2-0.2 0.5-0.5 0.9-0.4 0.3-0.8 0.5-0.5 0.2-1.1 0.2-0.6 0-1-0.2-0.5-0.2-0.7-0.6v2.7q0 0.1-0.1 0.2-0.1 0.1-0.2 0.1zm1.4-3.8q0.4 0 0.6-0.2 0.2-0.1 0.3-0.4 0.1-0.3 0.2-0.6 0-0.4 0-0.8-0.1-0.3-0.2-0.6-0.1-0.3-0.3-0.5-0.2-0.2-0.6-0.2-0.4 0-0.7 0.2-0.2 0.2-0.3 0.5-0.1 0.2-0.1 0.6-0.1 0.2-0.1 0.4 0 0.2 0.1 0.5 0 0.3 0.1 0.5 0.1 0.3 0.4 0.5 0.2 0.1 0.6 0.1zm8.8 1.6q-0.7 0-1.2-0.2-0.5-0.3-0.8-0.7-0.3-0.4-0.3-0.9 0-0.9 0.7-1.4 0.7-0.5 1.9-0.7l1.5-0.2v-0.2q0-0.4-0.2-0.6-0.2-0.3-0.7-0.3-0.3 0-0.5 0.2-0.2 0.1-0.3 0.3-0.2 0.2-0.3 0.2h-1.4q-0.1 0-0.2-0.1-0.1-0.1-0.1-0.2 0-0.2 0.2-0.5 0.2-0.2 0.5-0.5 0.3-0.3 0.9-0.5 0.5-0.2 1.3-0.2 0.7 0 1.3 0.2 0.5 0.2 0.9 0.5 0.3 0.3 0.5 0.8 0.1 0.4 0.1 1v3.6q0 0.1 0 0.2-0.1 0.1-0.3 0.1h-1.3q-0.2 0-0.3-0.1 0-0.1 0-0.2v-0.4q-0.2 0.2-0.5 0.4-0.2 0.2-0.6 0.3-0.3 0.1-0.8 0.1zm0.6-1.3q0.3 0 0.6-0.2 0.3-0.1 0.4-0.5 0.2-0.3 0.2-0.8v-0.1l-1 0.1q-0.6 0.1-0.9 0.3-0.2 0.2-0.2 0.5 0 0.2 0.1 0.4 0.1 0.1 0.3 0.2 0.2 0.1 0.5 0.1zm6.3 1.2h-1.4q-0.1 0-0.2-0.1-0.1-0.1-0.1-0.2v-7.9q0-0.2 0.1-0.2 0.1-0.1 0.2-0.1h1.4q0.2 0 0.2 0.1 0.1 0 0.1 0.2v7.9q0 0.1-0.1 0.2 0 0.1-0.2 0.1zm3.5 0h-1.5q-0.1 0-0.2-0.1-0.1-0.1-0.1-0.2v-7.9q0-0.2 0.1-0.2 0.1-0.1 0.2-0.1h1.5q0.1 0 0.2 0.1 0.1 0 0.1 0.2v7.9q0 0.1-0.1 0.2-0.1 0.1-0.2 0.1zm6.4 2.3h-1.3q-0.1 0-0.2-0.1-0.1-0.1-0.1-0.2 0 0 0 0 0-0.1 0.1-0.1l0.9-2.3-2.3-5.4q0-0.1 0-0.2 0-0.1 0.1-0.2 0 0 0.1 0h1.4q0.2 0 0.2 0 0.1 0.1 0.1 0.2l1.4 3.5 1.4-3.5q0.1-0.1 0.1-0.2 0.1 0 0.3 0h1.3q0.1 0 0.2 0 0.1 0.1 0.1 0.2 0 0.1 0 0.2l-3.4 7.8q-0.1 0.1-0.2 0.2 0 0.1-0.2 0.1zm7.4-2.2q-1 0-1.7-0.3-0.7-0.3-1.1-0.9-0.3-0.6-0.4-1.5 0-0.2 0-0.5 0-0.3 0-0.6 0.1-0.8 0.5-1.4 0.3-0.6 1-0.9 0.7-0.4 1.7-0.4 1 0 1.7 0.4 0.7 0.3 1 0.9 0.4 0.6 0.5 1.4 0 0.3 0 0.6 0 0.3 0 0.5-0.1 0.9-0.5 1.5-0.3 0.6-1 0.9-0.7 0.3-1.7 0.3zm0-1.4q0.5 0 0.8-0.4 0.2-0.3 0.3-0.9 0-0.2 0-0.5 0-0.3 0-0.5-0.1-0.6-0.3-1-0.3-0.3-0.8-0.3-0.5 0-0.8 0.3-0.2 0.4-0.3 1 0 0.2 0 0.5 0 0.3 0 0.5 0.1 0.6 0.3 0.9 0.3 0.4 0.8 0.4zm6.7 1.4q-0.7 0-1.3-0.3-0.5-0.3-0.8-0.9-0.3-0.6-0.3-1.5v-3.3q0-0.2 0.1-0.3 0.1 0 0.2 0h1.5q0.1 0 0.2 0 0.1 0.1 0.1 0.3v3.2q0 1.2 1.1 1.2 0.5 0 0.7-0.3 0.3-0.3 0.3-0.9v-3.2q0-0.2 0.1-0.3 0.1 0 0.2 0h1.5q0.2 0 0.3 0 0 0.1 0 0.3v5.6q0 0.1 0 0.2-0.1 0.1-0.3 0.1h-1.3q-0.2 0-0.3-0.1 0-0.1 0-0.2v-0.5q-0.4 0.5-0.9 0.7-0.5 0.2-1.1 0.2zm10.5-0.1h-1.1q-0.2 0-0.3-0.1-0.1-0.1-0.1-0.2l-1.7-5.6q-0.1 0-0.1-0.1 0-0.1 0.1-0.2 0.1 0 0.2 0h1.3q0.1 0 0.2 0 0.1 0.1 0.1 0.2l1 3.4 1.1-3.4q0-0.1 0.1-0.1 0.1-0.1 0.3-0.1h0.8q0.1 0 0.2 0.1 0.1 0 0.1 0.1l1.1 3.4 1-3.4q0.1-0.1 0.1-0.2 0.1 0 0.3 0h1.2q0.1 0 0.2 0 0.1 0.1 0.1 0.2 0 0.1 0 0.1l-1.8 5.6q0 0.1-0.1 0.2-0.1 0.1-0.2 0.1h-1.1q-0.2 0-0.3-0.1-0.1-0.1-0.1-0.2l-1.1-3.3-1.1 3.3q-0.1 0.1-0.2 0.2-0.1 0.1-0.2 0.1zm8.9 0.1q-0.7 0-1.2-0.2-0.5-0.3-0.8-0.7-0.3-0.4-0.3-0.9 0-0.9 0.7-1.4 0.7-0.5 1.8-0.7l1.5-0.2v-0.2q0-0.4-0.1-0.6-0.2-0.3-0.7-0.3-0.3 0-0.6 0.2-0.2 0.1-0.3 0.3-0.1 0.2-0.3 0.2h-1.3q-0.2 0-0.2-0.1-0.1-0.1-0.1-0.2 0-0.2 0.2-0.5 0.1-0.2 0.5-0.5 0.3-0.3 0.8-0.5 0.6-0.2 1.3-0.2 0.8 0 1.3 0.2 0.6 0.2 0.9 0.5 0.4 0.3 0.5 0.8 0.2 0.4 0.2 1v3.6q0 0.1-0.1 0.2-0.1 0.1-0.2 0.1h-1.4q-0.1 0-0.2-0.1-0.1-0.1-0.1-0.2v-0.4q-0.1 0.2-0.4 0.4-0.3 0.2-0.6 0.3-0.4 0.1-0.8 0.1zm0.5-1.3q0.4 0 0.7-0.2 0.2-0.1 0.4-0.5 0.2-0.3 0.2-0.8v-0.1l-1.1 0.1q-0.5 0.1-0.8 0.3-0.2 0.2-0.2 0.5 0 0.2 0.1 0.4 0.1 0.1 0.3 0.2 0.2 0.1 0.4 0.1zm6.5 1.2h-1.5q-0.2 0-0.2-0.1-0.1-0.1-0.1-0.2v-5.6q0-0.2 0.1-0.3 0 0 0.2 0h1.4q0.1 0 0.2 0 0.1 0.1 0.1 0.3v0.4q0.3-0.4 0.8-0.6 0.5-0.3 1.2-0.3 0.7 0 1.2 0.4 0.5 0.3 0.8 0.9 0.3 0.6 0.3 1.5v3.3q0 0.1-0.1 0.2 0 0.1-0.2 0.1h-1.5q-0.1 0-0.2-0.1-0.1-0.1-0.1-0.2v-3.3q0-0.5-0.3-0.8-0.2-0.4-0.7-0.4-0.5 0-0.8 0.4-0.3 0.3-0.3 0.8v3.3q0 0.1-0.1 0.2-0.1 0.1-0.2 0.1zm10.1 0h-1.1q-0.7 0-1.3-0.2-0.6-0.3-0.9-0.8-0.3-0.5-0.3-1.4v-2.3h-0.9q-0.1 0-0.2-0.1-0.1 0-0.1-0.2v-0.9q0-0.2 0.1-0.3 0.1 0 0.2 0h0.9v-2q0-0.2 0.1-0.2 0.1-0.1 0.2-0.1h1.4q0.2 0 0.2 0.1 0.1 0 0.1 0.2v2h1.5q0.2 0 0.2 0 0.1 0.1 0.1 0.3v0.9q0 0.2-0.1 0.2 0 0.1-0.2 0.1h-1.5v2.2q0 0.4 0.2 0.6 0.1 0.3 0.5 0.3h0.9q0.2 0 0.3 0 0 0.1 0 0.3v1q0 0.1 0 0.2-0.1 0.1-0.3 0.1z"/>
</svg>